<svg width="16" height="16" viewBox="0 0 16 16" fill="none" xmlns="http://www.w3.org/2000/svg">
<path fill-rule="evenodd" clip-rule="evenodd" d="M11.8572 2.6667H13.1428C13.3159 2.6667 13.4728 2.5582 13.5389 2.392C13.6057 2.2267 13.5689 2.0347 13.4463 1.90755L12.1605 0.57422C12.038 0.44711 11.8546 0.41067 11.6934 0.47822C11.5332 0.54667 11.4285 0.70933 11.4285 0.88889V2.2222C11.4285 2.4676 11.6205 2.6667 11.8572 2.6667ZM7.14288 8H11.4285V6.2222H7.14288V8ZM12.2857 5.7778C12.2857 5.5324 12.0937 5.3333 11.8572 5.3333H4.1429C3.90626 5.3333 3.71427 5.5324 3.71427 5.7778V13.7778C3.71427 14.0231 3.90626 14.2222 4.1429 14.2222H11.8572C12.0937 14.2222 12.2857 14.0231 12.2857 13.7778V5.7778ZM3.71427 2.6667C3.71427 3.1582 4.09825 3.5556 4.57143 3.5556H8.00003C8.47311 3.5556 8.85709 3.1582 8.85709 2.6667C8.85709 2.1751 8.47311 1.77778 8.00003 1.77778H4.57143C4.09825 1.77778 3.71427 2.1751 3.71427 2.6667ZM14 4V14.3929C14 15.2791 13.3537 16 12.5583 16H3.44167C2.64633 16 2 15.2791 2 14.3929V1.60711C2 0.72089 2.64633 0 3.44167 0H10.1429C10.3794 0 10.5714 0.19911 10.5714 0.44444V2.2222C10.5714 2.9573 11.1482 3.5556 11.8572 3.5556H13.5714C13.808 3.5556 14 3.7547 14 4ZM4.57143 8H6.28573V6.2222H4.57143V8ZM7.14288 13.3333H11.4285V8.8889H7.14288V13.3333ZM4.57143 13.3333H6.28573V8.8889H4.57143V13.3333Z" fill="black"/>
</svg>
