<svg width="16" height="16" viewBox="0 0 16 16" fill="none" xmlns="http://www.w3.org/2000/svg">
<path fill-rule="evenodd" clip-rule="evenodd" d="M3 8.00333C3 7.26695 3.59695 6.67 4.33333 6.67C5.06971 6.67 5.66667 7.26695 5.66667 8.00333C5.66667 8.73971 5.06971 9.33667 4.33333 9.33667C3.59695 9.33667 3 8.73971 3 8.00333Z" fill="black"/>
<path fill-rule="evenodd" clip-rule="evenodd" d="M6.66675 8.00333C6.66675 7.26695 7.2637 6.67 8.00008 6.67C8.73646 6.67 9.33341 7.26695 9.33341 8.00333C9.33341 8.73971 8.73646 9.33667 8.00008 9.33667C7.2637 9.33667 6.66675 8.73971 6.66675 8.00333Z" fill="black"/>
<path fill-rule="evenodd" clip-rule="evenodd" d="M10.3335 8.00333C10.3335 7.26695 10.9304 6.67 11.6668 6.67C12.4032 6.67 13.0002 7.26695 13.0002 8.00333C13.0002 8.73971 12.4032 9.33667 11.6668 9.33667C10.9304 9.33667 10.3335 8.73971 10.3335 8.00333Z" fill="black"/>
</svg>
