<svg width="16" height="16" viewBox="0 0 16 16" fill="none" xmlns="http://www.w3.org/2000/svg">
<path fill-rule="evenodd" clip-rule="evenodd" d="M8 0C3.5817 0 0 3.5817 0 8C0 12.4183 3.5817 16 8 16C12.4183 16 16 12.4183 16 8C15.9951 3.5838 12.4162 0.0049 8 0ZM8 14.2222C4.5636 14.2222 1.77778 11.4364 1.77778 8C1.77778 4.5636 4.5636 1.77778 8 1.77778C11.4364 1.77778 14.2222 4.5636 14.2222 8C14.2183 11.4348 11.4348 14.2183 8 14.2222ZM10.6486 10.0138C10.73 9.703 10.6373 9.3725 10.4062 9.1493L8.8889 7.632V4.4445C8.8889 3.9535 8.4909 3.5556 8 3.5556C7.5091 3.5556 7.1111 3.9535 7.1111 4.4445V8C7.1112 8.2357 7.2048 8.4618 7.3716 8.6285L9.1493 10.4062C9.3725 10.6373 9.703 10.73 10.0138 10.6486C10.3246 10.5673 10.5673 10.3246 10.6486 10.0138Z" fill="black"/>
</svg>
